<?xml version="1.0" encoding="UTF-8"?>
<svg xmlns="http://www.w3.org/2000/svg" xmlns:xlink="http://www.w3.org/1999/xlink" width="500px" height="500px" viewBox="0 0 500 500" version="1.1">
<g id="surface1">
<path style=" stroke:none;fill-rule:nonzero;fill:rgb(0%,0%,0%);fill-opacity:1;" d="M 349.15625 348.667969 C 369.617188 340.429688 384.117188 320.410156 384.117188 296.902344 C 384.117188 282.578125 378.648438 269.574219 369.980469 259.585938 C 378.839844 249.789062 384.117188 236.59375 384.117188 222.269531 C 384.117188 191.363281 359.238281 166.484375 328.328125 166.484375 C 312.78125 166.484375 298.761719 172.78125 288.664062 182.972656 C 278.566406 172.78125 264.546875 166.484375 248.996094 166.484375 C 233.957031 166.484375 220.347656 172.375 210.335938 181.984375 C 200.320312 172.375 186.710938 166.484375 171.671875 166.484375 C 140.761719 166.484375 115.886719 191.363281 115.886719 222.269531 C 115.886719 236.59375 121.351562 249.597656 130.019531 259.585938 C 121.160156 269.386719 115.886719 282.578125 115.886719 296.902344 C 115.886719 319.753906 129.480469 339.308594 149.058594 347.949219 C 146.746094 354.46875 145.484375 361.496094 145.484375 368.828125 C 145.484375 403.191406 173.144531 430.851562 207.507812 430.851562 C 223.433594 430.851562 237.890625 424.773438 248.996094 415.136719 C 259.894531 424.984375 274.5625 430.851562 290.484375 430.851562 C 324.851562 430.851562 352.507812 403.191406 352.507812 368.828125 C 352.507812 361.777344 351.332031 354.996094 349.15625 348.667969 Z M 182.246094 312.128906 C 180.5 312.902344 178.800781 313.757812 177.148438 314.679688 C 175.363281 315.253906 173.460938 315.5625 171.480469 315.5625 C 161.304688 315.375 152.824219 307.082031 152.824219 296.902344 C 152.824219 286.726562 161.117188 278.246094 171.480469 278.246094 C 181.660156 278.246094 190.140625 286.539062 190.140625 296.902344 C 190.140625 303.132812 187.03125 308.726562 182.246094 312.128906 Z M 230.152344 222.269531 C 230.152344 212.09375 238.445312 203.613281 248.808594 203.613281 C 258.984375 203.613281 267.46875 211.90625 267.46875 222.269531 C 267.46875 232.636719 259.175781 240.929688 248.808594 240.929688 C 238.632812 240.929688 230.152344 232.636719 230.152344 222.269531 Z M 230.152344 296.902344 C 230.152344 286.726562 238.445312 278.246094 248.808594 278.246094 C 258.984375 278.246094 267.46875 286.539062 267.46875 296.902344 C 267.46875 307.082031 259.175781 315.5625 248.808594 315.5625 C 238.632812 315.375 230.152344 307.082031 230.152344 296.902344 Z M 152.824219 222.269531 C 152.824219 212.09375 161.117188 203.613281 171.480469 203.613281 C 181.660156 203.613281 190.140625 211.90625 190.140625 222.269531 C 190.140625 232.636719 181.847656 240.929688 171.480469 240.929688 C 161.304688 240.929688 152.824219 232.636719 152.824219 222.269531 Z M 309.484375 222.273438 C 309.484375 212.09375 317.777344 203.613281 328.140625 203.613281 C 338.320312 203.613281 346.800781 211.90625 346.800781 222.269531 C 346.800781 232.636719 338.507812 240.929688 328.140625 240.929688 C 317.964844 240.929688 309.484375 232.636719 309.484375 222.273438 Z M 309.484375 296.902344 C 309.484375 286.726562 317.777344 278.246094 328.140625 278.246094 C 338.320312 278.246094 346.800781 286.539062 346.800781 296.902344 C 346.800781 307.082031 338.507812 315.5625 328.140625 315.5625 C 317.964844 315.375 309.484375 307.082031 309.484375 296.902344 Z M 207.507812 389.78125 C 196.195312 389.78125 186.765625 380.5625 186.765625 369.039062 C 186.765625 357.722656 195.984375 348.292969 207.507812 348.292969 C 219.035156 348.292969 228.253906 357.515625 228.253906 369.039062 C 228.253906 380.351562 219.035156 389.78125 207.507812 389.78125 Z M 290.484375 389.78125 C 279.171875 389.78125 269.742188 380.5625 269.742188 369.039062 C 269.742188 357.722656 278.960938 348.292969 290.484375 348.292969 C 301.800781 348.292969 311.230469 357.515625 311.230469 369.039062 C 311.019531 380.351562 301.800781 389.78125 290.484375 389.78125 Z M 290.484375 389.78125 "/>
<path style=" stroke:none;fill-rule:nonzero;fill:rgb(1.176471%,1.176471%,1.176471%);fill-opacity:1;" d="M 264.113281 104.292969 C 263.5625 79.734375 243.542969 60.054688 218.847656 60.054688 L 172.832031 60.054688 L 172.832031 106.070312 C 172.832031 131.109375 193.066406 151.347656 218.109375 151.347656 L 294.402344 151.347656 C 312.523438 151.347656 327.167969 136.703125 327.167969 118.582031 L 327.167969 85.28125 L 293.867188 85.28125 C 280.664062 85.28125 269.304688 93.0625 264.113281 104.292969 Z M 264.113281 104.292969 "/>
</g>
</svg>
